<?xml version="1.0" encoding="UTF-8" standalone="no"?>
<!-- Created with Inkscape (http://www.inkscape.org/) -->

<svg
   version="1.1"
   id="svg1"
   width="100"
   height="50"
   viewBox="0 0 100 50.000001"
   sodipodi:docname="logo-brnoc.svg"
   inkscape:version="1.2.2 (b0a8486541, 2022-12-01)"
   xmlns:inkscape="http://www.inkscape.org/namespaces/inkscape"
   xmlns:sodipodi="http://sodipodi.sourceforge.net/DTD/sodipodi-0.dtd"
   xmlns="http://www.w3.org/2000/svg"
   xmlns:svg="http://www.w3.org/2000/svg">
  <sodipodi:namedview
     id="namedview7"
     pagecolor="#ffffff"
     bordercolor="#000000"
     borderopacity="0.25"
     inkscape:showpageshadow="2"
     inkscape:pageopacity="0.0"
     inkscape:pagecheckerboard="0"
     inkscape:deskcolor="#d1d1d1"
     showgrid="false"
     inkscape:zoom="7.5491308"
     inkscape:cx="46.362953"
     inkscape:cy="45.10453"
     inkscape:window-width="1920"
     inkscape:window-height="1180"
     inkscape:window-x="0"
     inkscape:window-y="0"
     inkscape:window-maximized="1"
     inkscape:current-layer="svg1" />
  <defs
     id="defs1" />
  <path
     style="fill:#ffffff;stroke-width:0.025085;fill-opacity:1"
     d="m 33.635589,49.503345 c -0.44567,-0.03745 -0.982043,-0.183317 -1.342048,-0.36497 -0.349003,-0.176102 -0.572931,-0.340569 -0.879691,-0.646099 -0.44044,-0.438672 -0.711661,-0.879448 -0.896626,-1.457154 -0.16309,-0.509381 -0.167771,-0.568135 -0.167771,-2.10547 0,-1.240476 0.005,-1.41801 0.04547,-1.628854 0.148388,-0.772275 0.474498,-1.391092 1.019078,-1.933768 0.420415,-0.418948 0.787622,-0.64844 1.318529,-0.824033 0.977941,-0.323451 2.166121,-0.253624 3.035286,0.178374 0.843854,0.419419 1.48669,1.170425 1.791992,2.093533 0.174364,0.527201 0.184623,0.628567 0.196261,1.939154 0.01079,1.214921 -0.0041,1.522078 -0.09361,1.933627 -0.155063,0.712783 -0.458534,1.262233 -0.989962,1.792389 -0.425397,0.424376 -0.80274,0.661474 -1.331123,0.83639 -0.504613,0.167045 -1.128455,0.235392 -1.705781,0.186881 z m 0.914158,-1.44038 c 0.692883,-0.175283 1.179124,-0.761555 1.371809,-1.654015 0.05216,-0.241629 0.07973,-2.245519 0.03657,-2.658338 -0.10135,-0.969262 -0.593347,-1.687913 -1.315865,-1.922048 -0.297096,-0.09628 -0.794219,-0.113314 -1.095721,-0.03755 -0.538728,0.135372 -0.897391,0.44118 -1.16775,0.995664 -0.24575,0.504015 -0.299018,0.963194 -0.279153,2.40637 0.01376,0.999289 0.03328,1.192549 0.159634,1.580356 0.24871,0.763331 0.780228,1.24465 1.479759,1.340006 0.226719,0.0309 0.574763,0.0092 0.810715,-0.05044 z m 9.985278,1.43153 c -0.802121,-0.09716 -1.459167,-0.397212 -2.003582,-0.914973 -0.60266,-0.573153 -0.945484,-1.253356 -1.068715,-2.120437 -0.05214,-0.36688 -0.05373,-2.647448 -0.0022,-3.035085 0.108884,-0.817768 0.418679,-1.486269 0.947809,-2.045258 0.486493,-0.513947 1.108348,-0.848244 1.825589,-0.981406 0.35492,-0.06589 1.187891,-0.05954 1.580356,0.01205 0.749048,0.136636 1.277639,0.381114 1.731954,0.801047 0.536099,0.495532 0.83876,1.180573 0.870171,1.969542 l 0.01373,0.344919 h -0.866773 -0.866802 l -0.01701,-0.194409 c -0.03918,-0.44785 -0.117979,-0.701632 -0.308264,-0.992837 -0.255012,-0.39026 -0.659131,-0.582207 -1.284448,-0.610085 -0.517122,-0.02306 -0.850573,0.08359 -1.166461,0.373039 -0.280808,0.25731 -0.479738,0.589511 -0.597529,0.997847 -0.112168,0.388828 -0.122435,0.569226 -0.112078,1.969173 l 0.0096,1.30442 0.06558,0.241651 c 0.135288,0.498445 0.321998,0.830162 0.625349,1.111018 0.345375,0.319764 0.681467,0.430168 1.247206,0.409702 0.274303,-0.0099 0.380711,-0.02493 0.536433,-0.07568 0.592079,-0.192908 0.922572,-0.682736 0.964554,-1.429579 l 0.01516,-0.269664 h 0.874227 0.874218 v 0.169324 c -2.51e-4,0.450948 -0.112689,0.961935 -0.295953,1.344235 -0.406485,0.847963 -1.176492,1.39006 -2.237053,1.574922 -0.33126,0.05774 -1.056822,0.08265 -1.3551,0.04652 z M 1.7400026,44.940587 v -4.454195 l 1.8374767,0.01 c 1.9859701,0.01081 2.0462644,0.01443 2.6089412,0.156669 0.7934538,0.20058 1.3881517,0.62038 1.6622656,1.173401 0.1627088,0.32827 0.2130896,0.538611 0.23018,0.961027 0.011479,0.28378 0.00566,0.392989 -0.029395,0.55187 -0.1317916,0.597257 -0.4816497,1.042598 -1.0327598,1.314618 l -0.1849843,0.09131 0.2448446,0.08071 c 0.3142024,0.103581 0.5513585,0.245211 0.7578683,0.452603 0.3819719,0.383601 0.5781743,0.907715 0.5781743,1.544459 0,1.493981 -0.9237177,2.37457 -2.6696393,2.544982 -0.1663864,0.01624 -1.0063679,0.02674 -2.138497,0.02674 H 1.7400026 Z m 3.9132611,3.038781 C 6.1264823,47.878167 6.418226,47.657336 6.5577589,47.294725 6.6279418,47.112336 6.6519857,46.679374 6.6068076,46.411519 6.5450031,46.045113 6.331319,45.729001 6.0506956,45.588852 5.7760925,45.451709 5.6982412,45.444068 4.5746084,45.443978 H 3.5335806 l -0.0065,1.285606 -0.00649,1.285607 0.9848123,-4.26e-4 c 0.7444678,-3.26e-4 1.0246097,-0.0089 1.1478674,-0.03531 z M 5.4524056,44.129198 C 5.7191796,44.049728 5.912846,43.938639 6.0541723,43.784003 6.2110339,43.612371 6.2821298,43.42749 6.2985129,43.148617 6.3364167,42.503335 6.0554166,42.109766 5.4353753,41.939718 5.2572142,41.890857 5.161111,41.884992 4.3801996,41.875381 L 3.521038,41.864799 v 1.170911 1.170913 l 0.8717041,-0.01072 c 0.8113545,-0.01 0.8847182,-0.01459 1.0596635,-0.06671 z m 6.6978744,1.954026 v -3.311559 l 0.834078,0.0066 0.834076,0.0066 0.03564,0.457801 c 0.0196,0.251791 0.04218,0.457313 0.05016,0.456718 0.0079,-6.02e-4 0.07097,-0.09832 0.139954,-0.217171 0.361563,-0.622909 0.941334,-0.919671 1.579581,-0.808525 0.08462,0.01473 0.165867,0.03449 0.180563,0.0439 0.01841,0.01179 -0.0028,0.258925 -0.06847,0.794743 -0.05235,0.4277 -0.096,0.782035 -0.09698,0.787416 -9.81e-4,0.0054 -0.16266,0.0039 -0.359264,-0.0032 -0.418855,-0.01531 -0.631049,0.0091 -0.816638,0.09411 -0.190384,0.08716 -0.312546,0.191529 -0.429922,0.367302 L 13.9313,44.910343 v 2.242251 2.242249 h -0.890519 -0.890518 z m 7.048888,-1.141029 v -4.452589 l 0.896789,2.76e-4 0.896789,2.76e-4 1.793578,3.026729 c 0.986469,1.664702 1.807689,3.031396 1.824935,3.0371 0.02497,0.0082 0.03135,-0.608299 0.03135,-3.027008 v -3.037373 h 0.890516 0.890518 v 4.452589 4.452589 l -0.896789,-2.76e-4 -0.896788,-2.5e-4 -1.793578,-3.034075 c -0.986468,-1.66874 -1.807688,-3.034501 -1.824934,-3.035022 -0.02492,-7.54e-4 -0.03135,0.622325 -0.03135,3.034337 v 3.035286 h -0.890518 -0.890518 z m 5.493617,-7.490404 c -0.07948,-0.0132 -0.259461,-0.08309 -0.42456,-0.164848 -0.362801,-0.179682 -0.548263,-0.355149 -0.783923,-0.741674 l -0.164239,-0.269382 -0.0185,-2.991668 c -0.01017,-1.645419 -0.02332,-2.996665 -0.02922,-3.002771 -0.0059,-0.0061 -0.357536,-0.04243 -0.781428,-0.08071 -1.273739,-0.115018 -1.967605,-0.199976 -3.166331,-0.387694 -1.230862,-0.192751 -1.515281,-0.234663 -1.595057,-0.235049 -0.07312,-3.51e-4 -0.07968,0.0077 -0.118303,0.146697 -0.02249,0.08089 -0.256282,0.947265 -0.51954,1.925275 -0.693342,2.575791 -0.814682,2.984549 -1.005525,3.387316 -0.165993,0.350322 -0.506394,0.654363 -0.881147,0.787019 -0.24063,0.08518 -0.693966,0.09793 -0.974613,0.02741 -0.250818,-0.06302 -0.47695,-0.169218 -0.647628,-0.304133 -0.241215,-0.190665 -0.482151,-0.604925 -0.582113,-1.000859 -0.04826,-0.191155 -0.05039,-0.228815 -0.02264,-0.40136 0.04228,-0.262954 0.433705,-1.830541 0.82447,-3.301862 0.179413,-0.675539 0.377805,-1.431443 0.440869,-1.679785 l 0.114663,-0.45153 -0.05879,-0.05174 c -0.03233,-0.02846 -0.148096,-0.08291 -0.257253,-0.12099 -1.15922,-0.404434 -2.431714,-0.914652 -3.760535,-1.507818 -0.5731852,-0.255862 -1.0066166,-0.428983 -1.1363386,-0.453875 -0.054919,-0.01054 -0.07533,3.01e-4 -0.1078279,0.05731 -0.3254028,0.570798 -1.9527249,3.368097 -2.1496146,3.6951 -0.2779971,0.46171 -0.6133812,0.975102 -0.7429302,1.137244 -0.1142421,0.142985 -0.412864,0.331185 -0.6491448,0.409112 -0.1777122,0.05861 -0.2491995,0.06821 -0.5196233,0.06979 -0.2619277,0.0016 -0.3445427,-0.0078 -0.5017002,-0.05688 C 4.1863677,31.79958 4.0042656,31.691087 3.7939203,31.484093 3.6358923,31.328587 3.582978,31.254616 3.4888616,31.057643 3.2772495,30.614772 3.2313037,30.199813 3.3569295,29.866105 3.5433336,29.370958 4.3958325,27.833264 5.9497159,25.189382 6.0748725,24.97643 6.1721546,24.793912 6.1658959,24.783783 6.1596347,24.773655 6.0163341,24.672114 5.8474493,24.558135 3.5181508,22.986126 0.57379806,20.473659 0.15142672,19.697626 0.04012705,19.493131 -5.7337296e-4,19.289912 6.0906204e-6,18.941584 8.3389598e-4,18.447242 0.08197888,18.19511 0.34045229,17.883774 0.87889949,17.235207 2.3505692,15.927902 3.8973132,14.724164 4.5044055,14.251703 5.0716603,13.837483 5.6941097,13.412115 L 6.1990258,13.067067 5.9353647,12.62412 C 5.6137649,12.083839 3.9368898,9.1478008 3.6363739,8.5988252 3.379102,8.1288453 3.3411559,7.996855 3.3392997,7.5655332 3.3377444,7.2017865 3.3732898,7.0161055 3.4858037,6.8004404 3.9107287,5.9859492 4.885966,5.6709769 5.7410613,6.0720593 6.1312209,6.255064 6.1668141,6.292987 6.5541567,6.9384079 c 0.3744112,0.6238687 0.7990729,1.3518384 1.7706403,3.035286 0.623375,1.0801311 0.809729,1.3922171 0.8313272,1.3922171 0.00636,0 0.335522,-0.153926 0.731489,-0.342061 1.4198518,-0.674606 2.7139728,-1.2062864 4.0172638,-1.6504679 0.26829,-0.091438 0.491257,-0.1697067 0.495482,-0.1739308 0.0042,-0.00423 -0.218469,-0.8476906 -0.494872,-1.8743697 -0.871022,-3.2353304 -0.96914,-3.6723427 -0.905047,-4.0309805 0.07275,-0.4071302 0.365229,-0.8117843 0.790998,-1.0943927 0.458048,-0.3040348 1.074507,-0.3504817 1.546117,-0.1164916 0.381682,0.1893723 0.740268,0.5600214 0.878176,0.9077182 0.08117,0.2046332 0.122162,0.3476805 0.437579,1.5267697 0.607492,2.2709237 0.935921,3.4298347 1.0427,3.6793227 0.03335,0.077919 0.05648,0.1020415 0.09042,0.094283 0.142818,-0.032651 0.833811,-0.1488595 1.400197,-0.2354788 1.317721,-0.2015235 2.666046,-0.3590941 3.436645,-0.40162 0.248343,-0.013705 0.476842,-0.032092 0.507779,-0.04086 0.03788,-0.010734 0.06438,-0.046129 0.08114,-0.1083644 0.04791,-0.1779322 0.0752,-1.2379025 0.09111,-3.5391527 l 0.01605,-2.3203633 0.125686,-0.2220984 c 0.227683,-0.4023457 0.505313,-0.70789259 0.78326,-0.86202466 0.125428,-0.069554 0.127706,-0.0698151 0.681618,-0.0781165 0.635478,-0.009524 0.785376,0.0141088 1.002979,0.15812711 0.266947,0.17667746 0.525689,0.49592732 0.658978,0.81308282 0.09036,0.2150039 0.10424,0.5712682 0.127191,3.2639432 0.01344,1.5764503 0.03101,2.5397279 0.0477,2.6147684 0.03295,0.1480884 0.0905,0.2616421 0.147493,0.2910027 0.024,0.012365 0.258115,0.029286 0.520253,0.037603 0.975681,0.030952 2.914002,0.283574 4.369226,0.5694412 0.63647,0.125029 0.625578,0.1249407 0.659781,0.00535 0.0148,-0.051738 0.219273,-0.8052287 0.45439,-1.6744243 0.83735,-3.0955737 1.00701,-3.6606374 1.180403,-3.931383 0.159583,-0.2491833 0.468974,-0.4763532 0.817169,-0.6000039 0.209287,-0.074322 0.664361,-0.092324 0.916395,-0.036251 0.514845,0.114542 0.941714,0.4545388 1.178577,0.9387225 l 0.08178,0.167185 -0.0015,0.3888176 c -0.002,0.537118 -0.03768,0.6995294 -0.73864,3.3613911 -0.529658,2.0113514 -0.613868,2.3561232 -0.583024,2.3869682 0.01427,0.014268 0.312158,0.1248017 0.661982,0.2456311 1.199032,0.4141502 2.1243,0.7985136 3.662435,1.5214066 0.422813,0.198712 0.780821,0.361295 0.795574,0.361295 0.02892,0 0.203595,-0.2908 1.107457,-1.8437476 1.549896,-2.662906 1.778141,-3.0283516 2.036482,-3.2606213 0.454472,-0.4086099 1.233937,-0.4817149 1.833922,-0.1720008 0.259228,0.1338152 0.600827,0.4805156 0.725148,0.7359838 0.05036,0.1034757 0.10505,0.2583563 0.121542,0.3441794 0.04111,0.213964 0.01851,0.7064721 -0.04061,0.8849861 -0.08804,0.2658127 -0.46394,0.9570479 -1.587728,2.9196524 -0.623234,1.088431 -1.140044,2.006413 -1.148462,2.039961 -0.02334,0.09301 0.08962,0.192342 0.655787,0.576636 1.496125,1.015517 3.353101,2.541999 4.554201,3.743673 0.77221,0.772579 0.849408,0.908472 0.870136,1.531716 0.0227,0.682666 -0.06524,0.852552 -0.84481,1.631928 -1.080973,1.08071 -2.736355,2.437515 -4.65713,3.817144 -0.205996,0.147956 -0.429786,0.325109 -0.497315,0.393666 l -0.122778,0.124654 1.029631,1.80127 c 1.431113,2.503626 1.646337,2.899754 1.764236,3.247131 0.04743,0.139744 0.05258,0.196993 0.04138,0.460599 -0.01414,0.332822 -0.05039,0.465639 -0.209954,0.769302 -0.178947,0.340534 -0.552583,0.646741 -0.949279,0.777965 -0.252476,0.08352 -0.697314,0.08326 -0.965773,-5.76e-4 -0.408457,-0.12754 -0.672549,-0.313334 -0.875407,-0.61587 -0.268798,-0.400876 -0.965938,-1.57966 -2.197228,-3.71526 -0.34205,-0.593261 -0.623142,-1.080198 -0.624654,-1.082084 -0.0015,-0.0019 -0.307532,0.140326 -0.680045,0.316026 -1.185291,0.559062 -2.967753,1.295808 -3.985225,1.647219 -0.461913,0.159533 -0.472778,0.166246 -0.453412,0.280144 0.06297,0.370378 0.309896,1.373743 0.776012,3.153317 0.44013,1.680352 0.550423,2.165518 0.550308,2.420703 -4.01e-4,0.894113 -0.84182,1.677893 -1.741632,1.622342 -0.592305,-0.03656 -1.158541,-0.400261 -1.402985,-0.901141 -0.130464,-0.267385 -0.287315,-0.816026 -1.152806,-4.032418 -0.124371,-0.462192 -0.263375,-0.970163 -0.308896,-1.128826 l -0.08277,-0.288478 -0.112882,0.0079 c -0.145097,0.01026 -0.989526,0.131862 -1.680696,0.24204 -1.158189,0.184626 -1.990397,0.286625 -3.205532,0.392882 -0.362672,0.03171 -0.669105,0.06372 -0.68096,0.07111 -0.01186,0.0074 -0.02948,1.339823 -0.03917,2.960942 l -0.01761,2.947489 -0.125876,0.238307 c -0.245221,0.464258 -0.453097,0.690397 -0.784792,0.853736 -0.292004,0.143794 -0.77117,0.221199 -1.066112,0.172221 z m 2.458329,-10.631784 c 1.169857,-0.06569 2.021376,-0.167653 3.286136,-0.393467 4.185113,-0.747236 8.218639,-2.346909 11.689614,-4.636039 1.230167,-0.811301 2.733363,-1.964773 3.570452,-2.739767 l 0.148814,-0.137777 -0.183533,-0.167552 c -1.164535,-1.063133 -3.344813,-2.634068 -4.997509,-3.600808 -3.806445,-2.226573 -8.268347,-3.641383 -12.782339,-4.053114 -1.136268,-0.10364 -1.417456,-0.114399 -2.976741,-0.11389 -1.603189,5.24e-4 -1.936669,0.01527 -3.160712,0.139795 -6.120993,0.622688 -12.0212196,3.126585 -16.848438,7.150024 -0.2255243,0.187972 -0.4824023,0.408557 -0.5708395,0.490189 l -0.1607924,0.148418 0.046869,0.07154 c 0.06394,0.09758 0.4422311,0.431482 0.9394686,0.82922 3.6135181,2.890435 7.3165013,4.813896 11.4889343,5.967754 1.810562,0.500699 4.021619,0.890209 5.920061,1.042906 0.186257,0.01498 0.389445,0.0313 0.451531,0.03627 0.248949,0.01991 3.682221,-0.008 4.139024,-0.03369 z m -2.721722,-2.612922 c -1.213457,-0.147737 -2.281492,-0.648791 -3.119446,-1.463442 -0.808452,-0.785965 -1.30418,-1.735889 -1.525966,-2.924084 -0.06416,-0.343716 -0.06468,-1.512021 -8.33e-4,-1.85629 0.09921,-0.534958 0.210685,-0.885193 0.419159,-1.316964 0.500226,-1.036016 1.496101,-2.033798 2.516978,-2.521797 0.937242,-0.448022 2.265657,-0.594032 3.403345,-0.374075 0.983662,0.190178 1.790661,0.638275 2.59537,1.441109 0.848355,0.84638 1.289844,1.679582 1.482131,2.79716 0.05551,0.322629 0.07729,1.238686 0.03761,1.581696 -0.181431,1.568277 -0.992819,2.886361 -2.31011,3.752745 -0.64304,0.422925 -1.410756,0.7253 -2.15619,0.849245 -0.289551,0.04815 -1.066593,0.06823 -1.342046,0.0347 z m 0.985645,-3.42295 c 0.375966,-0.07549 0.778112,-0.31987 1.041561,-0.632947 0.133841,-0.159051 0.321838,-0.527224 0.367411,-0.719528 0.09118,-0.384796 0.07788,-0.847828 -0.03357,-1.168307 -0.121471,-0.349288 -0.494217,-0.782494 -0.858389,-0.99762 -0.489042,-0.288891 -1.089128,-0.334267 -1.614457,-0.122077 -0.265799,0.107362 -0.433009,0.222921 -0.678376,0.468827 -0.359247,0.360035 -0.474804,0.586382 -0.530423,1.038965 -0.03495,0.284462 -0.0036,0.65705 0.07738,0.91907 0.15735,0.509203 0.800422,1.103 1.316014,1.215173 0.212711,0.04628 0.678588,0.04549 0.912853,-0.0016 z"
     id="path1" />
  <path
     style="fill:#c8c8c8;stroke-width:0.025085;fill-opacity:1"
     d="m 83.635623,49.503345 c -0.44567,-0.03745 -0.982043,-0.183317 -1.342048,-0.36497 -0.349003,-0.176102 -0.572931,-0.340569 -0.879691,-0.646099 -0.44044,-0.438672 -0.711661,-0.879448 -0.896626,-1.457154 -0.16309,-0.509381 -0.167771,-0.568135 -0.167771,-2.10547 0,-1.240476 0.005,-1.41801 0.04547,-1.628854 0.148388,-0.772275 0.474498,-1.391092 1.019078,-1.933768 0.420415,-0.418948 0.787622,-0.64844 1.318529,-0.824033 0.977941,-0.323451 2.166121,-0.253624 3.035286,0.178374 0.843854,0.419419 1.48669,1.170425 1.791992,2.093533 0.174364,0.527201 0.184623,0.628567 0.196261,1.939154 0.01079,1.214921 -0.0041,1.522078 -0.09361,1.933627 -0.155063,0.712783 -0.458534,1.262233 -0.989962,1.792389 -0.425397,0.424376 -0.80274,0.661474 -1.331123,0.83639 -0.504613,0.167045 -1.128455,0.235392 -1.705781,0.186881 z m 0.914158,-1.44038 c 0.692883,-0.175283 1.179124,-0.761555 1.371809,-1.654015 0.05216,-0.241629 0.07973,-2.245519 0.03657,-2.658338 -0.10135,-0.969262 -0.593347,-1.687913 -1.315865,-1.922048 -0.297096,-0.09628 -0.794219,-0.113314 -1.095721,-0.03755 -0.538728,0.135372 -0.897391,0.44118 -1.16775,0.995664 -0.24575,0.504015 -0.299018,0.963194 -0.279153,2.40637 0.01376,0.999289 0.03328,1.192549 0.159634,1.580356 0.24871,0.763331 0.780228,1.24465 1.479759,1.340006 0.226719,0.0309 0.574763,0.0092 0.810715,-0.05044 z m 9.985278,1.43153 c -0.802121,-0.09716 -1.459167,-0.397212 -2.003582,-0.914973 -0.60266,-0.573153 -0.945484,-1.253356 -1.068715,-2.120437 -0.05214,-0.36688 -0.05373,-2.647448 -0.0022,-3.035085 0.108884,-0.817768 0.418679,-1.486269 0.947809,-2.045258 0.486493,-0.513947 1.108348,-0.848244 1.825589,-0.981406 0.35492,-0.06589 1.187891,-0.05954 1.580356,0.01205 0.749048,0.136636 1.277639,0.381114 1.731954,0.801047 0.536099,0.495532 0.83876,1.180573 0.870171,1.969542 l 0.01373,0.344919 h -0.866773 -0.866802 l -0.01701,-0.194409 c -0.03918,-0.44785 -0.117979,-0.701632 -0.308264,-0.992837 -0.255012,-0.39026 -0.659131,-0.582207 -1.284448,-0.610085 -0.517122,-0.02306 -0.850573,0.08359 -1.166461,0.373039 -0.280808,0.25731 -0.479738,0.589511 -0.597529,0.997847 -0.112168,0.388828 -0.122435,0.569226 -0.112078,1.969173 l 0.0096,1.30442 0.06558,0.241651 c 0.135288,0.498445 0.321998,0.830162 0.625349,1.111018 0.345375,0.319764 0.681467,0.430168 1.247206,0.409702 0.274303,-0.0099 0.380711,-0.02493 0.536433,-0.07568 0.592079,-0.192908 0.922572,-0.682736 0.964554,-1.429579 l 0.01516,-0.269664 h 0.874227 0.874218 v 0.169324 c -2.51e-4,0.450948 -0.112689,0.961935 -0.295953,1.344235 -0.406485,0.847963 -1.176492,1.39006 -2.237053,1.574922 -0.33126,0.05774 -1.056822,0.08265 -1.3551,0.04652 z M 51.740037,44.940587 v -4.454195 l 1.837476,0.01 c 1.98597,0.01081 2.046265,0.01443 2.608941,0.156669 0.793454,0.20058 1.388152,0.62038 1.662266,1.173401 0.162709,0.32827 0.21309,0.538611 0.23018,0.961027 0.01148,0.28378 0.0057,0.392989 -0.0294,0.55187 -0.131792,0.597257 -0.48165,1.042598 -1.03276,1.314618 l -0.184984,0.09131 0.244845,0.08071 c 0.314202,0.103581 0.551358,0.245211 0.757868,0.452603 0.381972,0.383601 0.578174,0.907715 0.578174,1.544459 0,1.493981 -0.923718,2.37457 -2.669639,2.544982 -0.166387,0.01624 -1.006368,0.02674 -2.138497,0.02674 h -1.864475 z m 3.913261,3.038781 c 0.473218,-0.101201 0.764962,-0.322032 0.904495,-0.684643 0.07018,-0.182389 0.09423,-0.615351 0.04905,-0.883206 -0.0618,-0.366406 -0.275489,-0.682518 -0.556112,-0.822667 -0.274604,-0.137143 -0.352455,-0.144784 -1.476088,-0.144874 h -1.041027 l -0.0065,1.285606 -0.0065,1.285607 0.984812,-4.26e-4 c 0.744468,-3.26e-4 1.02461,-0.0089 1.147867,-0.03531 z m -0.200858,-3.85017 c 0.266774,-0.07947 0.46044,-0.190559 0.601766,-0.345195 0.156862,-0.171632 0.227958,-0.356513 0.244341,-0.635386 0.0379,-0.645282 -0.243096,-1.038851 -0.863138,-1.208899 -0.178161,-0.04886 -0.274264,-0.05473 -1.055175,-0.06434 l -0.859162,-0.01058 v 1.170911 1.170913 l 0.871704,-0.01072 c 0.811355,-0.01 0.884718,-0.01459 1.059664,-0.06671 z m 6.697874,1.954026 v -3.311559 l 0.834078,0.0066 0.834076,0.0066 0.03564,0.457801 c 0.0196,0.251791 0.04218,0.457313 0.05016,0.456718 0.0079,-6.02e-4 0.07097,-0.09832 0.139954,-0.217171 0.361563,-0.622909 0.941334,-0.919671 1.579581,-0.808525 0.08462,0.01473 0.165867,0.03449 0.180563,0.0439 0.01841,0.01179 -0.0028,0.258925 -0.06847,0.794743 -0.05235,0.4277 -0.096,0.782035 -0.09698,0.787416 -9.81e-4,0.0054 -0.16266,0.0039 -0.359264,-0.0032 -0.418855,-0.01531 -0.631049,0.0091 -0.816638,0.09411 -0.190384,0.08716 -0.312546,0.191529 -0.429922,0.367302 l -0.101758,0.152384 v 2.242251 2.242249 h -0.890519 -0.890518 z m 7.048888,-1.141029 v -4.452589 l 0.896789,2.76e-4 0.896789,2.76e-4 1.793578,3.026729 c 0.986469,1.664702 1.807689,3.031396 1.824935,3.0371 0.02497,0.0082 0.03135,-0.608299 0.03135,-3.027008 v -3.037373 h 0.890516 0.890518 v 4.452589 4.452589 l -0.896789,-2.76e-4 -0.896788,-2.5e-4 -1.793578,-3.034075 c -0.986468,-1.66874 -1.807688,-3.034501 -1.824934,-3.035022 -0.02492,-7.54e-4 -0.03135,0.622325 -0.03135,3.034337 v 3.035286 H 70.08972 69.199202 Z m 5.493617,-7.490404 c -0.07948,-0.0132 -0.259461,-0.08309 -0.42456,-0.164848 -0.362801,-0.179682 -0.548263,-0.355149 -0.783923,-0.741674 l -0.164239,-0.269382 -0.0185,-2.991668 c -0.01017,-1.645419 -0.02332,-2.996665 -0.02922,-3.002771 -0.0059,-0.0061 -0.357536,-0.04243 -0.781428,-0.08071 -1.273739,-0.115018 -1.967605,-0.199976 -3.166331,-0.387694 -1.230862,-0.192751 -1.515281,-0.234663 -1.595057,-0.235049 -0.07312,-3.51e-4 -0.07968,0.0077 -0.118303,0.146697 -0.02249,0.08089 -0.256282,0.947265 -0.51954,1.925275 -0.693342,2.575791 -0.814682,2.984549 -1.005525,3.387316 -0.165993,0.350322 -0.506394,0.654363 -0.881147,0.787019 -0.24063,0.08518 -0.693966,0.09793 -0.974613,0.02741 -0.250818,-0.06302 -0.47695,-0.169218 -0.647628,-0.304133 -0.241215,-0.190665 -0.482151,-0.604925 -0.582113,-1.000859 -0.04826,-0.191155 -0.05039,-0.228815 -0.02264,-0.40136 0.04228,-0.262954 0.433705,-1.830541 0.82447,-3.301862 0.179413,-0.675539 0.377805,-1.431443 0.440869,-1.679785 l 0.114663,-0.45153 -0.05879,-0.05174 c -0.03233,-0.02846 -0.148096,-0.08291 -0.257253,-0.12099 -1.15922,-0.404434 -2.431714,-0.914652 -3.760535,-1.507818 -0.573185,-0.255862 -1.006617,-0.428983 -1.136339,-0.453875 -0.05492,-0.01054 -0.07533,3.01e-4 -0.107827,0.05731 -0.325403,0.570798 -1.952725,3.368097 -2.149615,3.6951 -0.277997,0.46171 -0.613381,0.975102 -0.74293,1.137244 -0.114242,0.142985 -0.412864,0.331185 -0.649145,0.409112 -0.177712,0.05861 -0.2492,0.06821 -0.519623,0.06979 -0.261928,0.0016 -0.344543,-0.0078 -0.501701,-0.05688 -0.287894,-0.08986 -0.469996,-0.198349 -0.680342,-0.405343 -0.158028,-0.155506 -0.210942,-0.229477 -0.305058,-0.42645 -0.211613,-0.442871 -0.257558,-0.85783 -0.131933,-1.191538 0.186405,-0.495147 1.038903,-2.032841 2.592787,-4.676723 0.125156,-0.212952 0.222439,-0.39547 0.21618,-0.405599 -0.0063,-0.01013 -0.149562,-0.111669 -0.318447,-0.225648 -2.329298,-1.572009 -5.273651,-4.084476 -5.696022,-4.860509 -0.1113,-0.204495 -0.152,-0.407714 -0.151421,-0.756042 8.28e-4,-0.494342 0.08197,-0.746474 0.340446,-1.05781 0.538447,-0.648567 2.010117,-1.955872 3.556861,-3.15961 0.607092,-0.472461 1.174347,-0.886681 1.796797,-1.312049 L 56.19906,13.067067 55.935399,12.62412 C 55.613799,12.083839 53.936924,9.1478005 53.636408,8.5988249 53.379136,8.128845 53.34119,7.9968547 53.339334,7.5655329 53.337734,7.2017862 53.373324,7.0161052 53.485838,6.8004401 53.910763,5.9859489 54.886,5.6709766 55.741095,6.072059 c 0.39016,0.1830047 0.425753,0.2209277 0.813096,0.8663486 0.374411,0.6238687 0.799073,1.3518384 1.77064,3.0352864 0.623375,1.080131 0.809729,1.392217 0.831327,1.392217 0.0064,0 0.335522,-0.153926 0.731489,-0.342061 1.419852,-0.674606 2.713973,-1.206287 4.017264,-1.6504682 0.26829,-0.091438 0.491257,-0.1697067 0.495482,-0.1739308 0.0042,-0.00423 -0.218469,-0.8476906 -0.494872,-1.8743697 -0.871022,-3.2353304 -0.96914,-3.6723427 -0.905047,-4.0309805 0.07275,-0.4071302 0.365229,-0.8117843 0.790998,-1.0943927 0.458048,-0.3040348 1.074507,-0.3504817 1.546117,-0.1164916 0.381682,0.1893723 0.740268,0.5600214 0.878176,0.9077182 0.08117,0.2046332 0.122162,0.3476805 0.437579,1.5267697 0.607492,2.2709237 0.935921,3.4298347 1.0427,3.6793227 0.03335,0.077919 0.05648,0.1020415 0.09042,0.094283 0.142818,-0.032651 0.833811,-0.1488595 1.400197,-0.2354788 1.317721,-0.2015235 2.666046,-0.3590941 3.436645,-0.40162 0.248343,-0.013705 0.476842,-0.032092 0.507779,-0.04086 0.03788,-0.010734 0.06438,-0.046129 0.08114,-0.1083644 0.04791,-0.1779322 0.0752,-1.2379025 0.09111,-3.5391527 l 0.01605,-2.3203633 0.125686,-0.2220984 c 0.227683,-0.4023457 0.505313,-0.70789261 0.78326,-0.86202471 0.125428,-0.0695539 0.127706,-0.069815 0.681618,-0.0781169 0.635478,-0.00952 0.785376,0.014109 1.002979,0.15812705 0.266947,0.1766775 0.525689,0.49592736 0.658978,0.81308286 0.09036,0.2150039 0.10424,0.5712682 0.127191,3.2639432 0.01344,1.5764503 0.03101,2.5397279 0.0477,2.6147684 0.03295,0.1480884 0.0905,0.2616421 0.147493,0.2910027 0.024,0.012365 0.258115,0.029286 0.520253,0.037603 0.975681,0.030952 2.914002,0.283574 4.369226,0.5694412 0.63647,0.125029 0.625578,0.1249407 0.659781,0.00535 0.0148,-0.051738 0.219273,-0.8052287 0.45439,-1.6744243 0.83735,-3.0955737 1.00701,-3.6606374 1.180403,-3.931383 0.159583,-0.2491833 0.468974,-0.4763532 0.817169,-0.6000039 0.209287,-0.074322 0.664361,-0.092324 0.916395,-0.036251 0.514845,0.114542 0.941714,0.4545388 1.178577,0.9387225 l 0.08178,0.167185 -0.0015,0.3888176 c -0.002,0.537118 -0.03768,0.6995294 -0.73864,3.3613911 -0.529658,2.0113514 -0.613868,2.3561232 -0.583024,2.3869682 0.01427,0.014268 0.312158,0.1248017 0.661982,0.2456311 1.199032,0.4141504 2.1243,0.7985134 3.662435,1.5214064 0.422813,0.198712 0.780821,0.361295 0.795574,0.361295 0.02892,0 0.203595,-0.2908 1.107457,-1.843747 1.549896,-2.6629064 1.778141,-3.028352 2.036482,-3.2606217 0.454472,-0.4086099 1.233937,-0.4817149 1.833922,-0.1720008 0.259228,0.1338152 0.600827,0.4805156 0.725148,0.7359838 0.05036,0.1034757 0.10505,0.2583563 0.121542,0.3441794 0.04111,0.213964 0.01851,0.7064721 -0.04061,0.8849861 -0.08804,0.2658127 -0.46394,0.9570479 -1.587728,2.9196522 -0.623234,1.088431 -1.140044,2.006413 -1.148462,2.039961 -0.02334,0.09301 0.08962,0.192342 0.655787,0.576636 1.496125,1.015517 3.353101,2.541999 4.554201,3.743673 0.77221,0.772579 0.849408,0.908472 0.870136,1.531716 0.0227,0.682667 -0.06524,0.852553 -0.84481,1.631929 -1.080973,1.08071 -2.736355,2.437515 -4.65713,3.817144 -0.205996,0.147956 -0.429786,0.325109 -0.497315,0.393666 l -0.122778,0.124654 1.029631,1.80127 c 1.431113,2.503626 1.646337,2.899754 1.764236,3.247131 0.04743,0.139744 0.05258,0.196993 0.04138,0.460599 -0.01414,0.332822 -0.05039,0.465639 -0.209954,0.769302 -0.178947,0.340534 -0.552583,0.646741 -0.949279,0.777965 -0.252476,0.08352 -0.697314,0.08326 -0.965773,-5.76e-4 -0.408457,-0.12754 -0.672549,-0.313334 -0.875407,-0.61587 -0.268798,-0.400876 -0.965938,-1.57966 -2.197228,-3.71526 -0.34205,-0.593261 -0.623142,-1.080198 -0.624654,-1.082084 -0.0015,-0.0019 -0.307532,0.140326 -0.680045,0.316026 -1.185291,0.559062 -2.967753,1.295808 -3.985225,1.647219 -0.461913,0.159533 -0.472778,0.166246 -0.453412,0.280144 0.06297,0.370378 0.309896,1.373743 0.776012,3.153317 0.44013,1.680352 0.550423,2.165518 0.550308,2.420703 -4.01e-4,0.894113 -0.84182,1.677893 -1.741632,1.622342 -0.592305,-0.03656 -1.158541,-0.400261 -1.402985,-0.901141 -0.130464,-0.267385 -0.287315,-0.816026 -1.152806,-4.032418 -0.124371,-0.462192 -0.263375,-0.970163 -0.308896,-1.128826 l -0.08277,-0.288478 -0.112882,0.0079 c -0.145097,0.01026 -0.989526,0.131862 -1.680696,0.24204 -1.158189,0.184626 -1.990397,0.286625 -3.205532,0.392882 -0.362672,0.03171 -0.669105,0.06372 -0.68096,0.07111 -0.01186,0.0074 -0.02948,1.339823 -0.03917,2.960942 l -0.01761,2.947489 -0.125876,0.238307 c -0.245221,0.464258 -0.453097,0.690397 -0.784792,0.853736 -0.292004,0.143794 -0.77117,0.221199 -1.066112,0.172221 z m 2.458329,-10.631784 c 1.169857,-0.06569 2.021376,-0.167653 3.286136,-0.393467 4.185113,-0.747236 8.218639,-2.346909 11.689614,-4.636039 1.230167,-0.811301 2.733363,-1.964773 3.570452,-2.739767 l 0.148814,-0.137777 -0.183533,-0.167552 c -1.164535,-1.063133 -3.344813,-2.634068 -4.997509,-3.600808 -3.806445,-2.226573 -8.268347,-3.641383 -12.782339,-4.053114 -1.136268,-0.10364 -1.417456,-0.114399 -2.976741,-0.11389 -1.603189,5.24e-4 -1.936669,0.01527 -3.160712,0.139795 -6.120993,0.622688 -12.02122,3.126585 -16.848438,7.150024 -0.225524,0.187972 -0.482402,0.408557 -0.570839,0.490189 l -0.160793,0.148418 0.04687,0.07154 c 0.06394,0.09758 0.442231,0.431482 0.939469,0.82922 3.613518,2.890435 7.316501,4.813896 11.488934,5.967754 1.810562,0.500699 4.021619,0.890209 5.920061,1.042906 0.186257,0.01498 0.389445,0.0313 0.451531,0.03627 0.248949,0.01991 3.682221,-0.008 4.139024,-0.03369 z m -2.721722,-2.612922 c -1.213457,-0.147737 -2.281492,-0.648791 -3.119446,-1.463442 -0.808452,-0.785965 -1.30418,-1.735889 -1.525966,-2.924084 -0.06416,-0.343716 -0.06468,-1.512021 -8.33e-4,-1.85629 0.09921,-0.534958 0.210685,-0.885193 0.419159,-1.316964 0.500226,-1.036016 1.496101,-2.033798 2.516978,-2.521797 0.937242,-0.448022 2.265657,-0.594032 3.403345,-0.374075 0.983662,0.190178 1.790661,0.638275 2.59537,1.441109 0.848355,0.84638 1.289844,1.679582 1.482131,2.79716 0.05551,0.322629 0.07729,1.238686 0.03761,1.581696 -0.181431,1.568277 -0.992819,2.886361 -2.31011,3.752745 -0.64304,0.422925 -1.410756,0.7253 -2.15619,0.849245 -0.289551,0.04815 -1.066593,0.06823 -1.342046,0.0347 z m 0.985645,-3.42295 c 0.375966,-0.07549 0.778112,-0.31987 1.041561,-0.632947 0.133841,-0.159051 0.321838,-0.527224 0.367411,-0.719528 0.09118,-0.384796 0.07788,-0.847828 -0.03357,-1.168307 -0.121471,-0.349288 -0.494217,-0.782494 -0.858389,-0.99762 -0.489042,-0.288891 -1.089128,-0.334267 -1.614457,-0.122077 -0.265799,0.107362 -0.433009,0.222921 -0.678376,0.468827 -0.359247,0.360035 -0.474804,0.586382 -0.530423,1.038965 -0.03495,0.284462 -0.0036,0.65705 0.07738,0.91907 0.15735,0.509203 0.800422,1.103 1.316014,1.215173 0.212711,0.04628 0.678588,0.04549 0.912853,-0.0016 z"
     id="path1-3" />
</svg>
