<?xml version="1.0" encoding="UTF-8" standalone="no"?>
<svg
   xmlns:dc="http://purl.org/dc/elements/1.1/"
   xmlns:cc="http://creativecommons.org/ns#"
   xmlns:rdf="http://www.w3.org/1999/02/22-rdf-syntax-ns#"
   xmlns:svg="http://www.w3.org/2000/svg"
   xmlns="http://www.w3.org/2000/svg"
   xmlns:sodipodi="http://sodipodi.sourceforge.net/DTD/sodipodi-0.dtd"
   xmlns:inkscape="http://www.inkscape.org/namespaces/inkscape"
   width="100"
   height="50"
   viewBox="0 0 26.458333 13.229167"
   version="1.1"
   id="svg8"
   inkscape:version="1.0.2 (e86c870879, 2021-01-15)"
   sodipodi:docname="zisk-logo.svg">
  <defs
     id="defs2">
    <style
       type="text/css"
       id="style323">
   <![CDATA[
    .str0 {stroke:#FFDA45;stroke-width:1.181;stroke-miterlimit:22.9256}
    .fil0 {fill:#FFDA45}
    .fil1 {fill:#D68F00;fill-rule:nonzero}
   ]]>
  </style>
  </defs>
  <sodipodi:namedview
     id="base"
     pagecolor="#ffffff"
     bordercolor="#666666"
     borderopacity="1.0"
     inkscape:pageopacity="0.0"
     inkscape:pageshadow="2"
     inkscape:zoom="4.0762216"
     inkscape:cx="19.106277"
     inkscape:cy="64.703362"
     inkscape:document-units="mm"
     inkscape:current-layer="layer1"
     inkscape:document-rotation="0"
     showgrid="false"
     units="px"
     inkscape:window-width="1920"
     inkscape:window-height="1062"
     inkscape:window-x="0"
     inkscape:window-y="0"
     inkscape:window-maximized="1" />
  <metadata
     id="metadata5">
    <rdf:RDF>
      <cc:Work
         rdf:about="">
        <dc:format>image/svg+xml</dc:format>
        <dc:type
           rdf:resource="http://purl.org/dc/dcmitype/StillImage" />
        <dc:title></dc:title>
      </cc:Work>
    </rdf:RDF>
  </metadata>
  <g
     inkscape:label="Layer 1"
     inkscape:groupmode="layer"
     id="layer1">
    <g
       id="surface1"
       transform="matrix(0.06057354,0,0,0.06057354,0.02105875,-0.02105856)">
      <path
         style="fill:#d4d4d4;fill-rule:nonzero;stroke-miterlimit:22.9256;stroke-opacity:1"
         d="m 218.05078,109.54688 c 0,60.31249 -48.89062,109.19921 -109.19922,109.19921 -60.308591,0 -109.199216,-48.88672 -109.199216,-109.19921 0,-60.308599 48.890625,-109.199224 109.199216,-109.199224 60.3086,0 109.19922,48.890625 109.19922,109.199224 z m 0,0"
         id="path186" />
      <path
         style="fill:#949494;fill-opacity:1;fill-rule:nonzero;stroke:none"
         d="m 113.90234,159.40234 v 15.51953 h -10.39453 v -15.08203 c -9.687498,-0.0469 -18.714841,-2.24609 -27.085935,-6.58593 v -19.76563 c 2.78125,2.24219 6.90625,4.31641 12.398437,6.21875 5.488282,1.90625 10.390626,3.00391 14.687498,3.29688 v -26.0625 c -11.175779,-4.14844 -18.78906,-8.63672 -22.863279,-13.46875 -4.074219,-4.832035 -6.125,-10.738285 -6.125,-17.69141 0,-7.46875 2.660157,-13.835938 7.953125,-19.105469 C 87.769531,61.429688 94.773438,58.355469 103.50781,57.5 V 44.175781 h 10.39453 v 13.03125 c 10.07813,0.464844 17.59375,2.074219 22.54688,4.832031 v 19.324219 c -6.6836,-4.074219 -14.20313,-6.5625 -22.54688,-7.464843 v 27.085942 c 10.44532,3.75781 17.9375,8.07421 22.47266,12.90625 4.53906,4.83203 6.80859,10.6875 6.80859,17.54687 0,7.92969 -2.53515,14.29687 -7.58593,19.12891 -5.05469,4.83203 -12.30078,7.78515 -21.69532,8.83593 z M 103.50781,96.882812 V 74.191406 c -6.636716,1.195313 -9.957029,4.660156 -9.957029,10.371094 0,4.929688 3.320313,9.027344 9.957029,12.320312 z m 10.39453,24.160158 v 21.66797 c 6.83204,-1.05078 10.25,-4.46485 10.25,-10.22657 0,-4.68359 -3.41796,-8.48828 -10.25,-11.4414 z m 0,0"
         id="path188" />
      <path
         style="fill:#949494;fill-opacity:1;fill-rule:nonzero;stroke:none"
         d="m 119.96094,189.18359 -0.77735,0.10157 -0.5039,0.0625 -0.50391,0.0586 -0.50781,0.0586 -0.50391,0.0508 -0.50781,0.0508 -0.50781,0.0469 -0.50781,0.043 -0.51172,0.043 -1.02344,0.0703 -0.51172,0.0312 -0.51562,0.0273 -0.51563,0.0234 -1.03125,0.0391 -0.51562,0.0156 -0.51954,0.0117 -0.51953,0.008 -0.51953,0.004 h -0.51953 v 11.84765 l 0.59375,-0.004 0.59766,-0.004 0.59375,-0.008 0.59375,-0.0156 0.58984,-0.0156 0.59375,-0.0195 0.58984,-0.0234 0.58985,-0.0312 0.58594,-0.0312 0.58984,-0.0352 0.58594,-0.0391 0.58593,-0.043 0.58594,-0.0469 1.16406,-0.10157 0.58204,-0.0586 1.16406,-0.125 0.57422,-0.0664 0.57812,-0.0742 0.85547,-0.11329 z m -19.6836,0.28516 -0.578121,-0.0625 -0.503907,-0.0586 -0.503906,-0.0625 -0.5,-0.0664 -0.503906,-0.0664 -1,-0.14843 -0.496094,-0.0781 -0.5,-0.0781 -0.496094,-0.0859 -0.492187,-0.0859 -0.496094,-0.0898 -0.984375,-0.1875 -0.492187,-0.10157 -0.976563,-0.20312 -0.976562,-0.21875 -0.484375,-0.11328 -0.484375,-0.11719 -0.382813,-0.0977 -2.878906,11.49219 0.453125,0.11328 0.558594,0.13282 0.554687,0.1289 0.558594,0.12891 0.5625,0.125 0.558594,0.11719 0.5625,0.11718 0.566406,0.11328 0.5625,0.11329 0.566406,0.10546 0.566407,0.10157 0.570312,0.10156 1.140625,0.1875 0.570313,0.0898 0.574218,0.0859 0.574219,0.082 0.574219,0.0781 1.15625,0.14843 0.578125,0.0664 0.652343,0.0703 z m -21.30859,-5.30859 -0.867188,-0.35547 -0.449218,-0.1875 -0.449219,-0.19141 -0.898437,-0.39062 -0.445313,-0.20313 -0.445313,-0.19922 -0.882812,-0.41406 -0.4375,-0.21094 -0.441406,-0.21094 -0.871094,-0.43359 -0.867188,-0.44531 -0.859374,-0.45313 L 70.625,180.23437 70.199219,180 l -0.421875,-0.23438 -0.746094,-0.42187 -5.902344,10.26953 0.867188,0.49219 0.488281,0.26953 0.488281,0.26562 0.492188,0.26563 0.492187,0.26172 0.492188,0.25781 0.496093,0.25781 0.5,0.25391 0.5,0.25 0.5,0.24609 0.503907,0.2461 0.503906,0.24218 0.507813,0.23829 0.507812,0.23437 0.511719,0.23438 1.023437,0.45312 1.03125,0.44531 1.039063,0.42969 0.414062,0.16797 z m -19.097656,-10.9375 -0.558594,-0.4336 -0.753906,-0.60156 -0.75,-0.60938 -0.742188,-0.61718 -0.367187,-0.3125 -0.363281,-0.31641 -0.726563,-0.63672 L 55.25,169.375 l -0.359375,-0.32422 -0.355469,-0.32422 -0.707031,-0.66015 -0.351563,-0.33204 -0.347656,-0.33203 -0.6875,-0.67578 c -0.273437,-0.26953 -0.546875,-0.54297 -0.820312,-0.82031 l -8.472656,8.27734 0.574218,0.58203 0.390625,0.38672 0.394531,0.38672 0.398438,0.38672 0.398438,0.38281 0.402343,0.38282 0.402344,0.375 0.40625,0.375 0.410156,0.375 0.410157,0.37109 0.410156,0.36719 0.417968,0.36718 0.414063,0.36329 0.417969,0.35937 0.425781,0.35938 0.421875,0.35546 0.425781,0.35547 0.425781,0.35157 0.433594,0.34765 0.429688,0.34766 0.4375,0.34375 0.609375,0.47656 z m -15.425782,-15.6836 -0.5,-0.67578 -0.28125,-0.39453 -0.285156,-0.39063 -0.277344,-0.39453 -0.277343,-0.39843 -0.273438,-0.39844 -0.542969,-0.80078 -0.53125,-0.8086 -0.261718,-0.40625 -0.261719,-0.41015 -0.257813,-0.41016 -0.253906,-0.41016 -0.253906,-0.41406 -0.496094,-0.83203 -0.492187,-0.83984 -0.476563,-0.84375 -0.242187,-0.4336 -10.40625,5.65625 0.308593,0.5586 0.273438,0.48437 0.277344,0.48438 0.277344,0.48047 0.28125,0.48046 0.285156,0.47657 0.578125,0.95312 0.292969,0.47266 0.292968,0.46875 0.601563,0.9375 0.304687,0.46484 0.925782,1.38281 0.316406,0.45704 0.316406,0.45312 0.324219,0.45313 0.320312,0.45312 0.324219,0.44922 0.542969,0.73437 z m -10.613281,-19.27344 -0.230469,-0.61718 -0.171874,-0.46094 -0.167969,-0.46094 -0.164063,-0.46484 -0.320312,-0.92969 -0.3125,-0.9375 -0.148438,-0.46875 -0.148437,-0.47266 -0.289063,-0.94531 -0.140625,-0.47656 -0.136719,-0.47266 -0.132812,-0.47656 -0.132812,-0.48047 -0.375,-1.4414 -0.234376,-0.96875 -0.113281,-0.47657 -11.539062,2.66407 0.125,0.55078 0.273437,1.10937 0.140625,0.55469 0.289063,1.10156 0.152344,0.55078 0.152343,0.54688 0.320313,1.09375 0.328125,1.08594 0.171875,0.53906 0.171875,0.54297 0.175781,0.53515 0.179688,0.53907 0.183593,0.53515 0.1875,0.53125 0.1875,0.53516 0.195313,0.53125 0.195312,0.52734 0.257813,0.6836 z M 28.878906,116.83594 28.828125,116.25 28.75,115.22656 l -0.03125,-0.50781 -0.03125,-0.51562 -0.02734,-0.51172 -0.02734,-0.51563 -0.03906,-1.03125 -0.01172,-0.51953 -0.01172,-0.51562 -0.01562,-1.03907 v -1.04297 l 0.01562,-1.03906 0.01172,-0.51562 0.01172,-0.51953 0.01953,-0.51563 0.02734,-0.61328 -11.832031,-0.59766 -0.03125,0.76172 -0.03906,1.17969 -0.01172,0.59375 -0.0078,0.59766 -0.0078,0.59375 -0.0039,0.59375 0.0039,0.59765 0.01562,1.1875 0.01172,0.59375 0.01953,0.59375 0.01953,0.58985 0.02344,0.58984 0.02734,0.58984 0.03125,0.58985 0.03516,0.58593 0.03906,0.58594 0.04297,0.58594 0.04688,0.58594 0.05859,0.66015 z m 1.015625,-21.99219 0.09766,-0.519531 0.09766,-0.492188 L 30.1875,93.34375 30.289062,92.851562 30.5,91.875 l 0.113281,-0.484375 0.113281,-0.488281 0.117188,-0.480469 0.117188,-0.484375 0.125,-0.484375 0.125,-0.480469 0.125,-0.476562 0.132812,-0.480469 0.132812,-0.476563 0.136719,-0.476562 0.140625,-0.472656 0.144532,-0.476563 0.144531,-0.472656 0.296875,-0.9375 0.164062,-0.5 -11.21875,-3.796875 -0.210937,0.636719 -0.171875,0.539062 -0.171875,0.542969 -0.328125,1.085938 -0.160156,0.542968 -0.160157,0.546875 -0.152343,0.550781 -0.152344,0.546876 -0.144532,0.550781 -0.144531,0.554687 -0.140625,0.550782 -0.136718,0.554687 -0.136719,0.558594 -0.257813,1.117187 -0.242187,1.117188 -0.117188,0.5625 -0.113281,0.566406 -0.109375,0.5625 -0.113281,0.59375 z m 6.929688,-20.851562 0.300781,-0.601563 0.441406,-0.867187 0.226563,-0.429688 0.230469,-0.429688 0.230468,-0.425781 0.46875,-0.851562 0.476563,-0.847657 0.738281,-1.253906 0.503906,-0.828125 0.511719,-0.824219 0.523437,-0.8125 0.53125,-0.808593 0.363282,-0.535157 -9.777344,-6.6875 -0.4375,0.648438 -0.308594,0.464844 -0.304687,0.464844 -0.300781,0.464843 -0.300782,0.46875 -0.585937,0.945313 -0.289063,0.472656 -0.289062,0.476562 -0.285156,0.476563 -0.28125,0.480469 -0.554688,0.96875 -0.273438,0.484375 -0.273437,0.488281 -0.265625,0.488281 -0.265625,0.492188 -0.261719,0.492187 -0.515625,0.992188 -0.253906,0.496094 -0.328125,0.667968 z m 12.34375,-18.191407 0.59375,-0.65625 0.65625,-0.707031 0.667969,-0.699219 0.671874,-0.6875 0.683594,-0.683593 0.6875,-0.671876 0.699219,-0.667968 0.707031,-0.65625 0.355469,-0.324219 0.359375,-0.324219 0.722656,-0.640625 0.363282,-0.316406 C 56.582031,48.550781 56.832031,48.335938 57.082031,48.125 L 49.488281,39.035156 49,39.449219 48.578125,39.8125 l -0.417969,0.363281 -0.414062,0.363281 -1.230469,1.113282 -0.40625,0.375 -0.402344,0.378906 -0.402343,0.382812 -0.398438,0.378907 -0.398438,0.386719 -0.394531,0.386718 -0.390625,0.390625 -0.390625,0.394531 -0.773437,0.789063 -0.382813,0.398437 -0.757812,0.804688 -0.375,0.40625 -0.375,0.410156 -0.269531,0.296875 z M 65.992188,41.585938 c 0.285156,-0.183594 0.570312,-0.359376 0.855468,-0.535157 l 0.828125,-0.503906 1.253907,-0.738281 0.421874,-0.238282 0.425782,-0.238281 0.421875,-0.234375 0.425781,-0.234375 0.859375,-0.460937 0.429687,-0.222656 0.867188,-0.445313 0.433594,-0.21875 0.4375,-0.214844 0.441406,-0.210937 0.4375,-0.210938 0.441406,-0.210937 0.707032,-0.324219 -4.882813,-10.792969 -0.835937,0.386719 -0.507813,0.238281 -1.007813,0.484375 -1.5,0.75 -0.496093,0.257813 -0.492188,0.257812 -0.492187,0.265625 -0.492188,0.261719 -0.976562,0.539063 -0.488282,0.273437 -0.480468,0.277344 -0.484375,0.277343 -0.480469,0.28125 -0.476562,0.285157 -0.476563,0.289062 -0.472656,0.289063 -0.472657,0.292968 -0.503906,0.316407 z m 19.984374,-9.097657 0.476563,-0.136719 0.476563,-0.140624 0.476562,-0.132813 0.480469,-0.128906 0.476562,-0.128907 0.480469,-0.125 0.964844,-0.242187 0.484375,-0.117187 0.484375,-0.113282 0.976562,-0.21875 0.488282,-0.105468 0.488281,-0.101563 0.984375,-0.195313 0.492187,-0.09375 0.496094,-0.08594 0.492187,-0.08984 0.496094,-0.08203 0.5,-0.08203 0.542969,-0.08203 -1.714844,-11.722657 -0.691406,0.105469 -0.570313,0.09375 -1.140624,0.195312 -1.132813,0.210938 -0.5625,0.109375 -0.566406,0.113281 -0.5625,0.117188 -0.558594,0.121094 -0.5625,0.125 -0.558594,0.125 L 87.558594,19.8125 87,19.945312 l -0.554688,0.136719 -0.550781,0.140625 -0.554687,0.144532 -0.550782,0.148437 -0.546874,0.148437 -0.550782,0.15625 -0.546875,0.15625 -0.472656,0.136719 z m 21.769528,-3.316406 0.67188,-0.0078 h 1.03906 l 1.03906,0.01563 0.51954,0.01172 0.51562,0.01563 0.51953,0.01563 0.51172,0.01953 1.03125,0.05469 0.51172,0.03125 1.02344,0.07031 0.51172,0.03906 1.52343,0.140625 0.50391,0.05469 0.50781,0.05469 0.57031,0.07031 1.49219,-11.753906 -0.71484,-0.08203 -0.58203,-0.06641 -1.16407,-0.117188 -0.58203,-0.05469 -0.58203,-0.05078 -0.58594,-0.04297 -0.58593,-0.04687 -0.58594,-0.03906 -0.58984,-0.03516 -0.58594,-0.03125 -0.58985,-0.02734 -0.58984,-0.02344 -0.59375,-0.01953 -0.58984,-0.01953 -0.59375,-0.01172 -0.59375,-0.0078 -0.59766,-0.0078 h -1.1875 l -0.74609,0.0078 z m 21.82032,2.664063 0.42578,0.113281 0.47656,0.128906 0.47656,0.132813 0.47656,0.136718 0.47657,0.140625 0.94531,0.289063 0.46875,0.148437 0.47266,0.148438 0.46875,0.15625 0.46484,0.15625 0.46875,0.160156 0.46484,0.160156 0.46094,0.164063 0.46094,0.167968 0.92187,0.34375 0.46094,0.175782 0.45313,0.179687 0.45703,0.179688 0.45312,0.183593 0.69141,0.289063 4.61328,-10.910156 -0.82422,-0.34375 -0.52344,-0.210938 -0.51953,-0.207031 -0.52734,-0.207031 -0.52344,-0.199219 -0.52734,-0.199219 -0.53125,-0.195312 -1.0625,-0.382813 -0.53125,-0.1875 -0.53907,-0.179687 -0.53515,-0.179688 -0.53906,-0.179687 -1.07813,-0.34375 -0.54297,-0.164063 -0.54687,-0.164062 -0.54297,-0.160157 -1.09375,-0.3125 -0.55078,-0.148437 -0.42578,-0.113281 z m 20.27734,8.5 0.76953,0.460937 0.82813,0.507813 0.41015,0.261718 0.40625,0.257813 0.40625,0.261719 0.8125,0.535156 0.80078,0.539062 0.39844,0.277344 0.39453,0.273438 0.39844,0.28125 0.39062,0.28125 0.39454,0.285156 0.77343,0.570312 0.77344,0.585938 0.37891,0.292968 0.76172,0.597657 -0.0234,-0.01563 7.42969,-9.226563 -0.46485,-0.371093 -0.875,-0.679688 -0.4414,-0.335938 -0.44141,-0.332031 -0.44531,-0.332031 -0.44922,-0.324219 -0.44922,-0.328125 -0.44922,-0.320312 -0.90625,-0.640625 -0.46094,-0.3125 -0.45703,-0.3125 -0.92187,-0.617188 -0.46485,-0.300781 -0.46875,-0.304688 -0.46875,-0.296874 -0.47265,-0.296876 -0.46875,-0.292968 -0.95313,-0.578125 -0.35547,-0.210938 z m 17.24219,13.710937 0.37109,0.390625 0.65625,0.707031 0.32813,0.355469 0.64453,0.71875 0.63672,0.726562 0.3125,0.367188 0.3125,0.363281 0.62109,0.742188 0.60937,0.75 0.30079,0.375 0.30078,0.378906 0.59375,0.765625 0.29297,0.382812 0.57812,0.773438 0.49219,0.675781 9.60937,-6.921875 -0.57422,-0.789062 -0.33203,-0.445313 -0.33203,-0.441406 -0.33594,-0.441406 -0.33984,-0.441407 -0.33984,-0.433593 -0.34375,-0.4375 -0.34375,-0.429688 -0.34766,-0.429687 -0.35156,-0.429688 -0.35547,-0.425781 -0.35547,-0.421875 -0.71875,-0.84375 -0.36328,-0.414062 -0.73438,-0.828126 -0.37109,-0.410156 -0.375,-0.410156 -0.375,-0.40625 -0.37891,-0.402344 -0.41796,-0.445312 z m 12.875,17.820313 0.34765,0.65625 0.44532,0.867187 0.21484,0.433594 0.21484,0.4375 0.21485,0.441406 0.21093,0.4375 0.20704,0.441406 0.20312,0.445313 0.20313,0.441406 0.19921,0.445312 0.19922,0.449219 0.19532,0.449219 0.1914,0.449219 0.1875,0.449219 0.1875,0.453124 0.1836,0.457032 0.17968,0.453125 0.17969,0.457031 0.17578,0.457031 0.17188,0.460938 0.17578,0.464843 11.14844,-4.003906 -0.22266,-0.601562 -0.19922,-0.527344 -0.20312,-0.527344 -0.41407,-1.046875 -0.21093,-0.523437 -0.42969,-1.039063 -0.44531,-1.03125 -0.22657,-0.511719 -0.46093,-1.023437 -0.23829,-0.507813 -0.23828,-0.503906 -0.23828,-0.507812 -0.24609,-0.5 -0.2461,-0.503906 -0.25,-0.5 -0.2539,-0.496094 -0.25781,-0.496094 -0.37891,-0.722656 z m 7.55078,20.640624 0.17578,0.835938 0.10156,0.488281 0.1875,0.984375 0.0898,0.496094 0.0859,0.496094 0.16407,0.992187 0.0781,0.5 0.0742,0.496094 0.0742,0.503906 0.13281,1 0.0625,0.503907 0.0586,0.503902 0.10938,1.01563 0.0508,0.50391 0.0469,0.50781 0.043,0.51172 0.043,0.5625 11.81641,-0.82422 -0.0547,-0.71094 -0.0508,-0.58594 -0.10937,-1.16406 -0.0625,-0.582031 -0.0625,-0.578125 -0.14063,-1.15625 -0.0742,-0.578125 -0.0781,-0.574219 -0.082,-0.574219 -0.0859,-0.574219 -0.0898,-0.570312 -0.1875,-1.140625 -0.10156,-0.566406 -0.10156,-0.570313 -0.10938,-0.566406 -0.10937,-0.5625 -0.11328,-0.566406 -0.19141,-0.902344 z m 1.66015,21.953128 -0.0469,0.76562 -0.0781,1.02344 -0.043,0.50781 -0.0469,0.50782 -0.0508,0.50781 -0.0547,0.50781 -0.0547,0.50391 -0.0586,0.5039 -0.0625,0.50391 -0.0664,0.50391 -0.0664,0.5 -0.14844,1 -0.0781,0.5 -0.16407,0.99218 -0.0859,0.4961 -0.0898,0.49218 -0.0937,0.49219 -0.12109,0.61719 11.60547,2.375 0.14843,-0.76172 0.10938,-0.56641 0.10156,-0.5664 0.10156,-0.57031 0.0937,-0.57032 0.0937,-0.5664 0.0898,-0.57422 0.0859,-0.57422 0.082,-0.57422 0.0781,-0.57422 0.0742,-0.57422 0.14063,-1.15625 0.0625,-0.58203 0.0625,-0.57812 0.0547,-0.58203 0.0547,-0.58594 0.0508,-0.58203 0.0469,-0.58594 0.043,-0.58594 0.0547,-0.83984 z m -4.3125,21.5625 -0.24609,0.69922 -0.16797,0.46484 -0.34375,0.92187 -0.17578,0.45704 -0.17969,0.45703 -0.17968,0.45312 -0.1836,0.45703 -0.1875,0.44922 -0.1875,0.45313 -0.1914,0.44922 -0.19532,0.44921 -0.39843,0.89063 -0.20313,0.44531 -0.20312,0.44141 -0.20704,0.4414 -0.21093,0.44141 -0.42969,0.875 -0.21484,0.43359 -0.22266,0.4336 10.51172,5.46484 0.28515,-0.5625 0.25,-0.5 0.2461,-0.5 0.24609,-0.5039 0.23828,-0.50391 0.47657,-1.01563 0.23046,-0.50781 0.23047,-0.51172 0.22657,-0.51562 0.44531,-1.03125 0.42969,-1.03906 0.21093,-0.51954 0.41407,-1.04687 0.20312,-0.52734 0.19922,-0.52735 0.19141,-0.52734 0.19531,-0.53125 0.27344,-0.77344 z m -10.03125,19.58203 -0.33203,0.47265 -0.28125,0.39063 -0.28515,0.39453 -0.57422,0.77734 -0.29297,0.38672 -0.28906,0.38282 -0.59375,0.76171 -0.60157,0.75782 -0.60937,0.74609 -0.30859,0.37109 -0.3125,0.3711 -0.3125,0.36719 -0.63282,0.73046 -0.3164,0.36329 -0.64453,0.71484 -0.53907,0.58594 8.67188,8.07031 0.63281,-0.6875 0.37109,-0.41016 0.73438,-0.82812 0.36328,-0.41797 0.35938,-0.41797 0.35937,-0.42187 0.35547,-0.42188 0.35547,-0.42578 0.35156,-0.42969 0.34766,-0.42969 0.6875,-0.86718 0.67968,-0.875 0.33594,-0.44141 0.33203,-0.44141 0.33203,-0.44531 0.32813,-0.44531 0.32422,-0.44922 0.32422,-0.45312 0.375,-0.53125 z m -14.95312,16.1289 -0.55469,0.45313 -0.75781,0.60156 -0.76172,0.59375 -0.38672,0.29297 -0.38672,0.28906 -0.77734,0.57422 -0.39063,0.28516 -0.39062,0.28125 -0.39453,0.27734 -0.79688,0.55078 -0.40234,0.27344 -0.39844,0.26953 -0.80859,0.53125 -0.41016,0.26563 -0.40625,0.25781 -0.41015,0.25781 -0.54297,0.33594 6.14843,10.12109 0.66407,-0.40625 0.47265,-0.29687 0.9375,-0.60156 0.46485,-0.30469 0.46093,-0.30469 0.46094,-0.30859 0.46094,-0.3125 0.45703,-0.31641 0.45313,-0.31641 0.45312,-0.32031 0.89844,-0.64844 0.44922,-0.32812 0.44531,-0.32813 0.88281,-0.67187 0.4375,-0.33594 0.4375,-0.34375 0.4336,-0.33984 0.42968,-0.34766 0.61328,-0.5 z m -18.73438,11.48829 -0.46484,0.20312 -0.44922,0.19141 -0.90625,0.375 -0.45312,0.18359 -0.45703,0.18359 -1.3711,0.52735 -0.46484,0.16797 -0.46094,0.16797 -0.46094,0.16406 -0.46484,0.16406 -0.46875,0.16016 -0.46484,0.15625 -0.46875,0.15234 -0.47266,0.15234 -0.46875,0.14844 -0.47266,0.14453 -0.47265,0.14063 -0.47657,0.14062 -0.66796,0.19141 3.16406,11.41406 0.8125,-0.23047 0.54687,-0.16015 0.54297,-0.16407 0.54297,-0.16796 0.53906,-0.16797 1.07813,-0.35157 0.53515,-0.17968 1.07032,-0.36719 0.53515,-0.19141 0.52735,-0.1914 0.53125,-0.19532 0.52734,-0.19921 0.52734,-0.20313 0.52344,-0.20312 0.51953,-0.21094 0.52344,-0.21094 1.03906,-0.42969 0.51563,-0.22265 0.46875,-0.19922 z m 0,0"
         id="path190" />
    </g>
    <g
       style="clip-rule:evenodd;fill-rule:evenodd;image-rendering:optimizeQuality;shape-rendering:geometricPrecision;text-rendering:geometricPrecision"
       id="g349"
       transform="matrix(0.19465556,0,0,0.19465556,-36.736716,-36.610237)">
      <g
         id="Layer_x0020_1"
         transform="matrix(0.24787249,0,0,0.24787249,256.94289,188.11556)">
  <metadata
   id="CorelCorpID_0Corel-Layer" />

  <g
   id="_1278711776">
   <circle
   class="fil0 str0"
   cx="136.065"
   cy="136.935"
   r="136.5"
   id="circle328" />

   <path
   class="fil1"
   d="M 142.379,199.251 V 218.65 H 129.385 V 199.8 c -12.11,-0.061 -23.395,-2.806 -33.857,-8.235 v -24.707 c 3.477,2.806 8.632,5.399 15.495,7.778 6.863,2.379 12.993,3.751 18.362,4.118 v -32.577 c -13.97,-5.184 -23.486,-10.797 -28.58,-16.836 -5.094,-6.04 -7.656,-13.421 -7.656,-22.114 0,-9.334 3.324,-17.295 9.943,-23.883 6.619,-6.558 15.373,-10.401 26.293,-11.469 V 55.221 h 12.994 v 16.288 c 12.597,0.58 21.992,2.592 28.184,6.04 v 24.157 c -8.358,-5.094 -17.753,-8.205 -28.184,-9.334 v 33.857 c 13.055,4.698 22.419,10.096 28.092,16.136 5.673,6.039 8.51,13.36 8.51,21.931 0,9.913 -3.172,17.874 -9.486,23.913 -6.314,6.04 -15.373,9.73 -27.116,11.042 z M 129.385,121.105 V 92.738 c -8.296,1.495 -12.445,5.826 -12.445,12.963 0,6.162 4.149,11.286 12.445,15.404 z m 12.994,30.197 v 27.085 c 8.54,-1.311 12.811,-5.581 12.811,-12.78 0,-5.856 -4.271,-10.614 -12.811,-14.305 z"
   id="path330" />

   <path
   class="fil1"
   d="m 149.953,236.478 -0.974,0.129 -0.629,0.078 -0.631,0.074 -0.632,0.07 -0.633,0.067 -0.634,0.062 -0.635,0.059 -0.635,0.054 -0.639,0.051 -0.639,0.046 -0.64,0.043 -0.641,0.038 -0.643,0.035 -0.643,0.031 -0.644,0.026 -0.645,0.023 -0.647,0.018 -0.648,0.014 -0.648,0.011 -0.65,0.006 -0.651,10e-4 v 14.807 l 0.744,-0.002 0.744,-0.007 0.743,-0.012 0.741,-0.016 0.741,-0.021 0.739,-0.026 0.739,-0.03 0.736,-0.036 0.735,-0.039 0.735,-0.044 0.733,-0.049 0.733,-0.054 0.73,-0.057 0.73,-0.063 0.729,-0.067 0.727,-0.072 0.726,-0.076 0.725,-0.08 0.722,-0.085 0.722,-0.089 1.068,-0.142 z m -24.606,0.36 -0.721,-0.079 -0.631,-0.074 -0.63,-0.078 -0.627,-0.082 -0.627,-0.086 -0.626,-0.089 -0.624,-0.094 -0.623,-0.097 -0.622,-0.101 -0.62,-0.105 -0.618,-0.108 -0.618,-0.112 -0.617,-0.117 -0.615,-0.119 -0.614,-0.124 -0.612,-0.127 -0.611,-0.131 -0.609,-0.135 -0.609,-0.138 -0.606,-0.142 -0.605,-0.146 -0.478,-0.118 -3.599,14.362 0.566,0.141 0.696,0.167 0.696,0.163 0.698,0.159 0.7,0.155 0.702,0.15 0.703,0.146 0.705,0.142 0.706,0.138 0.707,0.133 0.709,0.129 0.712,0.125 0.712,0.12 0.713,0.116 0.715,0.111 0.716,0.108 0.718,0.102 0.719,0.098 0.721,0.095 0.722,0.089 0.722,0.085 0.815,0.09 z m -26.637,-6.637 -1.083,-0.443 -0.563,-0.236 -0.562,-0.24 -0.562,-0.244 -0.559,-0.246 -0.556,-0.25 -0.556,-0.253 -0.553,-0.256 -0.552,-0.26 -0.549,-0.263 -0.548,-0.265 -1.092,-0.543 -1.082,-0.555 -0.538,-0.282 -0.537,-0.285 -0.535,-0.289 -0.533,-0.291 -0.53,-0.294 -0.93,-0.527 -7.381,12.836 1.084,0.615 0.611,0.338 0.611,0.335 0.614,0.33 0.616,0.328 0.618,0.323 0.62,0.321 0.624,0.317 0.625,0.313 0.625,0.308 0.63,0.306 0.631,0.302 0.633,0.298 0.636,0.294 0.638,0.291 0.64,0.287 0.641,0.283 0.643,0.279 0.646,0.275 0.649,0.272 0.649,0.268 0.518,0.21 z m -23.873,-13.673 -0.697,-0.542 -0.944,-0.75 -0.935,-0.762 -0.464,-0.387 -0.462,-0.388 -0.459,-0.39 -0.457,-0.394 -0.908,-0.796 -0.45,-0.401 -0.447,-0.404 -0.445,-0.407 -0.883,-0.822 -0.438,-0.415 -0.435,-0.417 -0.863,-0.843 c -0.342,-0.34 -0.683,-0.68 -1.022,-1.025 l -10.594,10.344 0.719,0.726 0.489,0.487 0.494,0.484 0.496,0.482 0.499,0.479 0.502,0.475 0.504,0.472 0.508,0.469 0.51,0.467 0.513,0.464 0.517,0.461 0.518,0.457 0.52,0.454 0.524,0.451 0.528,0.449 0.529,0.445 0.532,0.441 0.535,0.439 0.538,0.436 0.54,0.433 0.544,0.43 0.766,0.596 z m -19.279,-19.603 -0.625,-0.847 -0.354,-0.49 -0.353,-0.492 -0.348,-0.493 -0.346,-0.496 -0.343,-0.498 -0.677,-1.002 -0.666,-1.012 -0.328,-0.508 -0.325,-0.51 -0.322,-0.513 -0.32,-0.515 -0.316,-0.517 -0.623,-1.04 -0.611,-1.048 -0.301,-0.527 -0.298,-0.528 -0.3,-0.541 -13.01,7.068 0.386,0.697 0.341,0.607 0.346,0.605 0.349,0.603 0.352,0.6 0.356,0.597 0.359,0.596 0.363,0.593 0.366,0.59 0.369,0.589 0.374,0.586 0.377,0.584 0.38,0.58 0.383,0.579 0.387,0.576 0.389,0.574 0.394,0.57 0.397,0.569 0.401,0.567 0.402,0.563 0.407,0.562 0.678,0.919 z m -13.266,-24.095 -0.291,-0.771 -0.213,-0.576 -0.21,-0.577 -0.205,-0.579 -0.203,-0.582 -0.199,-0.582 -0.196,-0.584 -0.192,-0.585 -0.189,-0.589 -0.185,-0.588 -0.182,-0.589 -0.178,-0.593 -0.175,-0.594 -0.171,-0.595 -0.167,-0.595 -0.164,-0.599 -0.16,-0.6 -0.156,-0.599 -0.153,-0.603 -0.15,-0.604 -0.145,-0.605 -0.14,-0.597 -14.427,3.33 0.16,0.687 0.168,0.696 0.171,0.693 0.176,0.691 0.18,0.692 0.184,0.687 0.188,0.686 0.193,0.686 0.196,0.684 0.2,0.681 0.205,0.679 0.208,0.679 0.214,0.677 0.216,0.674 0.22,0.672 0.225,0.672 0.229,0.668 0.232,0.667 0.237,0.666 0.241,0.664 0.244,0.661 0.324,0.854 z m -6.192,-26.786 -0.063,-0.732 -0.051,-0.638 -0.047,-0.639 -0.042,-0.639 -0.039,-0.641 -0.034,-0.643 -0.031,-0.644 -0.027,-0.643 -0.022,-0.646 -0.018,-0.648 -0.015,-0.646 -0.01,-0.648 -0.006,-0.65 -0.002,-0.652 0.002,-0.651 0.006,-0.65 0.01,-0.648 0.015,-0.647 0.018,-0.648 0.022,-0.646 0.033,-0.763 -14.788,-0.75 -0.04,0.952 -0.026,0.739 -0.022,0.739 -0.016,0.742 -0.011,0.744 -0.008,0.743 -0.002,0.744 0.002,0.744 0.008,0.744 0.011,0.743 0.016,0.742 0.022,0.739 0.026,0.739 0.03,0.739 0.035,0.737 0.04,0.735 0.044,0.735 0.048,0.733 0.054,0.732 0.058,0.731 0.071,0.826 z m 1.269,-27.488 0.122,-0.65 0.119,-0.615 0.124,-0.613 0.128,-0.613 0.131,-0.611 0.134,-0.61 0.138,-0.608 0.143,-0.607 0.145,-0.604 0.15,-0.604 0.153,-0.603 0.156,-0.6 0.16,-0.6 0.164,-0.599 0.167,-0.595 0.171,-0.595 0.175,-0.594 0.178,-0.593 0.182,-0.589 0.185,-0.588 0.189,-0.588 0.205,-0.625 -14.026,-4.745 -0.262,0.798 -0.216,0.673 -0.214,0.678 -0.208,0.678 -0.205,0.679 -0.2,0.681 -0.196,0.684 -0.193,0.686 -0.188,0.686 -0.184,0.688 -0.18,0.691 -0.176,0.691 -0.171,0.693 -0.168,0.697 -0.163,0.696 -0.159,0.699 -0.154,0.699 -0.151,0.701 -0.146,0.703 -0.142,0.705 -0.137,0.706 -0.14,0.742 z m 8.661,-26.066 0.375,-0.751 0.555,-1.084 0.282,-0.538 0.285,-0.536 0.288,-0.535 0.587,-1.064 0.599,-1.056 0.611,-1.048 0.31,-0.52 0.629,-1.037 0.642,-1.028 0.325,-0.51 0.328,-0.508 0.665,-1.011 0.451,-0.669 -12.22,-8.361 -0.549,0.814 -0.383,0.579 -0.381,0.581 -0.376,0.583 -0.374,0.587 -0.369,0.588 -0.366,0.59 -0.363,0.594 -0.359,0.594 -0.356,0.598 -0.352,0.6 -0.349,0.603 -0.346,0.605 -0.341,0.607 -0.339,0.609 -0.334,0.612 -0.331,0.613 -0.327,0.616 -0.325,0.619 -0.319,0.62 -0.317,0.623 -0.415,0.833 z m 15.428,-22.741 0.742,-0.817 0.823,-0.883 0.832,-0.874 0.842,-0.862 0.853,-0.853 0.862,-0.842 0.874,-0.833 0.883,-0.821 0.445,-0.407 0.447,-0.404 0.903,-0.801 0.454,-0.397 c 0.31,-0.266 0.62,-0.535 0.933,-0.798 l -9.492,-11.363 -0.611,0.518 -0.524,0.452 -0.522,0.454 -0.518,0.458 -0.516,0.46 -0.513,0.464 -0.51,0.467 -0.508,0.469 -0.504,0.472 -0.502,0.476 -0.499,0.478 -0.496,0.482 -0.494,0.484 -0.489,0.487 -0.487,0.491 -0.485,0.493 -0.482,0.496 -0.478,0.499 -0.476,0.501 -0.472,0.505 -0.469,0.507 -0.468,0.511 -0.337,0.373 z M 82.492,51.98 c 0.353,-0.225 0.71,-0.445 1.066,-0.666 l 1.037,-0.63 0.52,-0.31 1.048,-0.611 0.528,-0.301 0.529,-0.298 0.53,-0.294 0.533,-0.291 0.535,-0.289 0.537,-0.285 0.538,-0.282 0.541,-0.279 0.541,-0.276 0.545,-0.272 0.547,-0.271 0.548,-0.265 0.549,-0.263 0.552,-0.26 0.882,-0.406 -6.101,-13.491 -1.046,0.481 -0.633,0.298 -0.631,0.302 -0.63,0.306 -0.626,0.309 -0.624,0.313 -0.623,0.316 -0.621,0.321 -0.618,0.323 -0.616,0.328 -0.614,0.33 -0.611,0.335 -0.611,0.338 -0.606,0.343 -0.604,0.344 -0.603,0.349 -0.6,0.353 -0.598,0.355 -0.595,0.359 -0.593,0.363 -0.591,0.366 -0.627,0.395 z m 24.98,-11.368 0.594,-0.174 0.595,-0.172 0.596,-0.167 0.599,-0.164 0.6,-0.16 0.599,-0.157 1.207,-0.302 0.605,-0.146 0.606,-0.142 0.608,-0.138 0.61,-0.135 0.611,-0.131 0.612,-0.127 0.614,-0.124 0.615,-0.119 0.617,-0.117 0.618,-0.112 0.618,-0.108 0.62,-0.105 0.622,-0.101 0.679,-0.106 -2.144,-14.651 -0.863,0.134 -0.713,0.116 -0.712,0.121 -0.712,0.124 -0.709,0.129 -0.707,0.133 -0.706,0.138 -0.705,0.142 -0.704,0.146 -0.701,0.15 -0.699,0.155 -0.699,0.159 -0.696,0.163 -0.696,0.167 -0.693,0.172 -0.691,0.175 -0.692,0.181 -0.688,0.184 -0.686,0.188 -0.686,0.192 -0.683,0.197 -0.594,0.174 z m 27.211,-4.146 0.838,-0.009 0.651,-10e-4 0.651,10e-4 0.65,0.006 0.648,0.011 0.647,0.014 0.648,0.019 0.646,0.022 0.643,0.026 0.643,0.031 0.643,0.035 0.641,0.038 0.64,0.043 0.639,0.046 0.639,0.051 0.635,0.055 0.635,0.058 0.634,0.063 0.633,0.066 0.632,0.07 0.712,0.084 1.867,-14.688 -0.896,-0.107 -0.725,-0.08 -0.726,-0.076 -0.727,-0.072 -0.729,-0.067 -0.73,-0.063 -0.73,-0.057 -0.733,-0.054 -0.733,-0.049 -0.735,-0.044 -0.735,-0.039 -0.736,-0.035 -0.74,-0.031 -0.738,-0.025 -0.74,-0.021 -0.742,-0.017 -0.743,-0.012 -0.744,-0.007 -0.744,-0.002 -0.744,0.002 -0.931,0.01 z m 27.275,3.327 0.531,0.142 0.599,0.164 0.596,0.167 0.594,0.171 0.594,0.175 0.593,0.178 0.59,0.182 0.588,0.185 0.588,0.188 0.586,0.192 0.583,0.196 0.583,0.199 0.581,0.203 0.579,0.206 0.577,0.209 0.576,0.213 0.575,0.217 0.573,0.22 0.57,0.222 0.57,0.227 0.567,0.23 0.862,0.358 5.768,-13.638 -1.029,-0.427 -0.653,-0.264 -0.653,-0.26 -0.656,-0.257 -0.658,-0.252 -0.659,-0.248 -0.661,-0.245 -0.664,-0.24 -0.665,-0.237 -0.667,-0.233 -0.67,-0.228 -0.671,-0.225 -0.673,-0.221 -0.673,-0.216 -0.677,-0.213 -0.678,-0.209 -0.68,-0.204 -0.681,-0.2 -0.684,-0.197 -0.685,-0.192 -0.686,-0.188 -0.531,-0.142 z m 25.348,10.627 0.963,0.578 0.517,0.316 0.515,0.319 0.513,0.323 0.51,0.324 0.508,0.328 1.012,0.666 1.003,0.677 0.497,0.344 0.496,0.345 0.494,0.349 0.492,0.352 0.489,0.355 0.486,0.357 0.485,0.36 0.484,0.364 0.479,0.366 0.478,0.368 0.95,0.746 -0.029,-0.022 9.288,-11.532 -0.583,-0.462 -0.546,-0.425 -0.549,-0.424 -0.551,-0.42 -0.553,-0.416 -0.556,-0.413 -0.559,-0.41 -0.561,-0.407 -0.563,-0.403 -0.566,-0.401 -0.569,-0.396 -0.572,-0.394 -0.573,-0.389 -0.576,-0.388 -0.579,-0.383 -0.58,-0.379 -0.584,-0.377 -0.587,-0.374 -0.588,-0.37 -0.59,-0.366 -0.593,-0.362 -0.596,-0.36 -0.444,-0.264 z m 21.55,17.138 0.466,0.491 0.822,0.883 0.407,0.444 0.805,0.898 0.796,0.907 0.394,0.458 0.39,0.458 0.774,0.927 0.763,0.936 0.377,0.47 0.374,0.474 0.372,0.476 0.369,0.478 0.366,0.48 0.363,0.483 0.36,0.484 0.616,0.844 12.015,-8.654 -0.72,-0.986 -0.414,-0.556 -0.416,-0.553 -0.42,-0.551 -0.423,-0.548 -0.425,-0.545 -0.43,-0.544 -0.433,-0.541 -0.435,-0.537 -0.439,-0.535 -0.442,-0.532 -0.445,-0.53 -0.449,-0.527 -0.451,-0.524 -0.453,-0.521 -0.458,-0.518 -0.46,-0.516 -0.464,-0.513 -0.467,-0.511 -0.469,-0.507 -0.473,-0.505 -0.526,-0.554 z m 16.097,22.277 0.432,0.82 0.555,1.084 0.272,0.543 0.269,0.547 0.267,0.548 0.262,0.55 0.259,0.551 0.257,0.554 0.253,0.555 0.25,0.557 0.247,0.559 0.243,0.561 0.24,0.563 0.236,0.563 0.234,0.566 0.229,0.568 0.227,0.569 0.223,0.571 0.219,0.572 0.217,0.574 0.216,0.585 13.935,-5.006 -0.278,-0.754 -0.249,-0.659 -0.252,-0.66 -0.257,-0.655 -0.26,-0.653 -0.264,-0.652 -0.268,-0.649 -0.271,-0.649 -0.276,-0.646 -0.279,-0.644 -0.283,-0.641 -0.287,-0.64 -0.291,-0.637 -0.294,-0.635 -0.298,-0.634 -0.302,-0.631 -0.305,-0.629 -0.31,-0.627 -0.312,-0.625 -0.317,-0.623 -0.32,-0.62 -0.474,-0.901 z m 9.437,25.799 0.221,1.044 0.123,0.613 0.12,0.615 0.116,0.616 0.112,0.618 0.109,0.619 0.104,0.62 0.101,0.622 0.098,0.623 0.093,0.624 0.09,0.626 0.085,0.626 0.082,0.628 0.078,0.629 0.075,0.631 0.069,0.632 0.067,0.633 0.062,0.634 0.058,0.635 0.055,0.636 0.056,0.705 14.771,-1.03 -0.07,-0.89 -0.063,-0.731 -0.067,-0.729 -0.071,-0.727 -0.076,-0.725 -0.081,-0.725 -0.085,-0.723 -0.089,-0.721 -0.094,-0.722 -0.099,-0.718 -0.103,-0.718 -0.106,-0.717 -0.112,-0.715 -0.116,-0.712 -0.12,-0.713 -0.125,-0.711 -0.129,-0.709 -0.133,-0.708 -0.138,-0.706 -0.142,-0.705 -0.238,-1.132 z m 2.077,27.441 -0.062,0.96 -0.047,0.639 -0.05,0.638 -0.055,0.636 -0.058,0.635 -0.062,0.635 -0.067,0.632 -0.069,0.632 -0.075,0.631 -0.078,0.629 -0.082,0.628 -0.085,0.626 -0.09,0.626 -0.093,0.625 -0.098,0.622 -0.101,0.623 -0.104,0.62 -0.109,0.618 -0.112,0.618 -0.116,0.616 -0.151,0.768 14.506,2.969 0.187,-0.95 0.133,-0.708 0.129,-0.709 0.125,-0.711 0.12,-0.713 0.116,-0.712 0.112,-0.715 0.106,-0.716 0.103,-0.718 0.099,-0.719 0.094,-0.721 0.089,-0.722 0.085,-0.723 0.081,-0.725 0.076,-0.725 0.071,-0.727 0.067,-0.729 0.063,-0.73 0.057,-0.731 0.054,-0.732 0.068,-1.053 z m -5.391,26.954 -0.309,0.876 -0.21,0.578 -0.213,0.577 -0.217,0.575 -0.219,0.571 -0.223,0.571 -0.227,0.569 -0.23,0.569 -0.233,0.565 -0.236,0.563 -0.24,0.563 -0.244,0.561 -0.246,0.559 -0.25,0.557 -0.253,0.555 -0.256,0.553 -0.26,0.552 -0.262,0.55 -0.267,0.548 -0.269,0.547 -0.272,0.543 -0.276,0.542 13.138,6.829 0.357,-0.701 0.312,-0.625 0.31,-0.626 0.305,-0.63 0.302,-0.631 0.298,-0.633 0.294,-0.635 0.291,-0.638 0.287,-0.64 0.283,-0.642 0.279,-0.643 0.276,-0.645 0.271,-0.649 0.268,-0.65 0.264,-0.652 0.26,-0.652 0.257,-0.656 0.252,-0.66 0.249,-0.659 0.243,-0.66 0.241,-0.663 0.341,-0.965 z m -12.541,24.476 -0.417,0.592 -0.351,0.491 -0.355,0.489 -0.718,0.972 -0.364,0.484 -0.365,0.48 -0.741,0.954 -0.751,0.944 -0.763,0.936 -0.385,0.463 -0.389,0.462 -0.391,0.46 -0.79,0.912 -0.399,0.453 -0.805,0.897 -0.671,0.73 10.837,10.089 0.791,-0.861 0.463,-0.512 0.461,-0.517 0.458,-0.518 0.454,-0.522 0.451,-0.524 0.448,-0.526 0.445,-0.529 0.442,-0.533 0.439,-0.535 0.435,-0.538 0.433,-0.54 0.429,-0.543 0.426,-0.545 0.424,-0.549 0.419,-0.552 0.416,-0.552 0.414,-0.555 0.409,-0.559 0.407,-0.561 0.404,-0.565 0.469,-0.665 z m -18.69,20.163 -0.697,0.568 -0.945,0.751 -0.954,0.74 -0.479,0.366 -0.484,0.364 -0.972,0.718 -0.489,0.354 -0.491,0.352 -0.493,0.348 -0.996,0.69 -0.499,0.34 -0.502,0.337 -1.011,0.665 -0.509,0.329 -0.51,0.324 -0.513,0.323 -0.678,0.419 7.688,12.654 0.83,-0.512 0.588,-0.37 0.587,-0.373 0.583,-0.377 0.581,-0.38 0.579,-0.383 0.576,-0.387 0.574,-0.391 0.571,-0.393 0.568,-0.396 0.567,-0.401 0.564,-0.403 0.561,-0.407 0.558,-0.41 0.556,-0.413 0.553,-0.416 0.551,-0.42 0.549,-0.423 0.545,-0.426 0.544,-0.429 0.539,-0.433 0.766,-0.622 z m -23.42,14.361 -0.582,0.253 -0.562,0.24 -0.564,0.236 -0.565,0.233 -0.568,0.23 -0.57,0.227 -0.571,0.223 -0.572,0.219 -0.574,0.217 -0.577,0.213 -0.578,0.209 -0.578,0.206 -0.58,0.202 -0.584,0.2 -0.584,0.196 -0.585,0.192 -0.588,0.188 -0.588,0.185 -0.59,0.182 -0.594,0.178 -0.593,0.175 -0.837,0.239 3.956,14.269 1.016,-0.291 0.682,-0.2 0.679,-0.204 0.678,-0.209 0.676,-0.213 0.674,-0.216 0.674,-0.221 0.67,-0.225 0.669,-0.228 0.668,-0.233 0.666,-0.237 0.663,-0.24 0.661,-0.245 0.659,-0.248 0.659,-0.253 0.655,-0.256 0.653,-0.26 0.652,-0.264 0.65,-0.268 0.648,-0.272 0.646,-0.275 0.583,-0.253 z"
   id="path332" />

  </g>

 </g>
    </g>
  </g>
</svg>
